<?xml version="1.0" encoding="UTF-8"?>
<svg width="669px" height="543px" viewBox="0 0 669 543" version="1.1" xmlns="http://www.w3.org/2000/svg" xmlns:xlink="http://www.w3.org/1999/xlink">
    <!-- Generator: Sketch 52.2 (67145) - http://www.bohemiancoding.com/sketch -->
    <title>n_outlined</title>
    <desc>Created with Sketch.</desc>
    <g id="app-icons" stroke="none" stroke-width="1" fill="none" fill-rule="evenodd">
        <path d="M136.982107,512.424564 L136.982107,150.5 L147.647603,164.653591 L147.654859,164.648122 L281,344.677597 L280.595816,344.976971 L405.512607,512 L508.658323,512 L151.400533,30 L30,30 L30,512.052128 L136.982107,512.424564 Z M146.982107,512.459377 L255,512.835418 L255,326.376072 L146.982107,180.540952 L146.982107,512.459377 Z M531,30 L531,391.153591 L520.334504,377 L520.327248,377.005468 L413,232.10279 L413,232.281425 L262.464986,30 L163.847924,30 L521.105715,512 L639,512 L639,30 L531,30 Z M521,30 L413,30 L413,215.301676 L521,361.112639 L521,30 Z M285,542.940039 L0,541.947872 L0,-1.13686838e-13 L277.535014,1.75504056e-12 L383,141.718575 L383,1.80477855e-12 L669,-1.13686838e-13 L669,542 L390.487393,542 L285,400.95552 L285,542.940039 Z" id="n_outlined" fill="#000000" fill-rule="nonzero"></path>
    </g>
</svg>